<svg height="512" viewBox="0 0 64 64" width="512" xmlns="http://www.w3.org/2000/svg"><g id="Fill_Outline" data-name="Fill Outline"><g id="Color"><g><path d="m32.5 36-5-5 6-6-7-5 3.99-3.986a13.081 13.081 0 0 0 -6.013-10.8 13.762 13.762 0 0 0 -18.321 3.056 15.085 15.085 0 0 0 2.52 21.018l21.824 17.712-2-7z" fill="#f8664f"/><path d="m57.844 8.27a13.762 13.762 0 0 0 -18.321-3.057 13.082 13.082 0 0 0 -6.023 10.959c0-.053-.009-.105-.01-.158l.01 3.986 7 5-8 6 5 5-5 6 1 5 21.824-17.712a15.085 15.085 0 0 0 2.52-21.018z" fill="#f8664f"/><ellipse cx="15" cy="11" fill="#f89c8d" rx="5" ry="3" transform="matrix(.901 -.435 .435 .901 -3.29 7.611)"/><circle cx="11" cy="21" fill="#f89c8d" r="2"/><path d="m51 47-4 4 3 4 3-4z" fill="#f8664f"/><path d="m15 47-4 5h7z" fill="#f8664f"/><path d="m7 42-2 4 4 1 2-4z" fill="#f8664f"/><path d="m57 40-3 5 6 1z" fill="#f8664f"/><path d="m38 48-3 5 6 1z" fill="#f8664f"/><path d="m27.5 49.5-4-2-1 4 4 2z" fill="#f8664f"/><path d="m31 54-2 4 3 3 2-3z" fill="#f8664f"/><g fill="#cc5144"><path d="m51 47-1.333 1.333 1.333 2.667-2 2.667 1 1.333 3-4z"/><path d="m16.8 50h-4.2l-1.6 2h7z"/><path d="m5 46 4 1 1-2-4-1z"/><path d="m55.091 43.182-1.091 1.818 6 1-1.091-2.182z"/><path d="m40 52-4-.667-1 1.667 6 1z"/><path d="m25.5 48.5-1 4 2 1 1-4z"/><path d="m31 54-.8 1.6 1.8 2.4-1.2 1.8 1.2 1.2 2-3z"/><path d="m13.29 33.033 17.21 13.967-2-7 4-4-3.148-3.148a30.974 30.974 0 0 1 -8.352 1.148 31.053 31.053 0 0 1 -7.71-.967z"/><path d="m57.844 8.27a13.424 13.424 0 0 0 -5.867-4.346 31.009 31.009 0 0 1 -18.912 27.641l4.435 4.435-5 6 1 5 21.824-17.712a15.085 15.085 0 0 0 2.52-21.018z"/></g></g></g><g id="Outline_copy" data-name="Outline copy"><g fill="#39519d"><g><path d="m30.5 48a1 1 0 0 1 -.63-.224l-9.908-8.041a1 1 0 1 1 1.26-1.552l7.445 6.042-1.129-3.951a1 1 0 0 1 .255-.981l3.293-3.293-4.293-4.293a1 1 0 0 1 0-1.414l5.165-5.165-6.039-4.315a1 1 0 0 1 -.126-1.52l3.685-3.682a12.089 12.089 0 0 0 -5.545-9.559 12.763 12.763 0 0 0 -16.986 2.828 14.083 14.083 0 0 0 2.36 19.632l8.809 7.15a1 1 0 1 1 -1.26 1.553l-8.809-7.151a16.072 16.072 0 0 1 -2.684-22.4 14.776 14.776 0 0 1 19.659-3.29 14.077 14.077 0 0 1 6.468 11.626 1 1 0 0 1 -.293.72l-3.155 3.152 6.039 4.314a1 1 0 0 1 .126 1.52l-5.293 5.294 4.293 4.293a1 1 0 0 1 0 1.414l-3.584 3.584 1.839 6.435a1 1 0 0 1 -.962 1.274z"/><path d="m13.2 15.468c-.187 0-.371-.009-.552-.025a3.573 3.573 0 0 1 -3.048-1.836 1 1 0 1 1 1.8-.869 1.678 1.678 0 0 0 1.431.713 6.027 6.027 0 0 0 3.041-.649 6.062 6.062 0 0 0 2.4-1.977 1.685 1.685 0 0 0 .328-1.563 1.678 1.678 0 0 0 -1.431-.713 6.046 6.046 0 0 0 -3.041.649 6.933 6.933 0 0 0 -1.453.933 1 1 0 0 1 -1.284-1.531 8.892 8.892 0 0 1 1.871-1.2 8.049 8.049 0 0 1 4.092-.84 3.573 3.573 0 0 1 3.046 1.833 3.575 3.575 0 0 1 -.461 3.53 7.977 7.977 0 0 1 -3.2 2.68 8.291 8.291 0 0 1 -3.539.865z"/><path d="m11 24a3 3 0 1 1 3-3 3 3 0 0 1 -3 3zm0-4a1 1 0 1 0 1 1 1 1 0 0 0 -1-1z"/><path d="m50 56a1 1 0 0 1 -.8-.4l-3-4a1 1 0 0 1 .093-1.307l4-4a.983.983 0 0 1 .867-.28 1 1 0 0 1 .735.54l2 4a1 1 0 0 1 -.1 1.047l-3 4a1 1 0 0 1 -.795.4zm-1.68-4.906 1.68 2.239 1.829-2.433-1.1-2.207z"/><path d="m18 53h-7a1 1 0 0 1 -.781-1.625l4-5a1.035 1.035 0 0 1 .848-.375 1 1 0 0 1 .79.483l3 5a1 1 0 0 1 -.857 1.517zm-4.919-2h3.152l-1.35-2.252z"/><path d="m9 48a1 1 0 0 1 -.242-.03l-4-1a1 1 0 0 1 -.653-1.417l2-4a1 1 0 0 1 1.137-.523l4 1a1 1 0 0 1 .653 1.417l-2 4a1 1 0 0 1 -.895.553zm-2.548-2.668 2.012.5 1.084-2.167-2.012-.5z"/><path d="m60 47a1.009 1.009 0 0 1 -.164-.014l-6-1a1 1 0 0 1 -.693-1.5l3-5a.959.959 0 0 1 .895-.486 1 1 0 0 1 .857.552l3 6a1 1 0 0 1 -.895 1.448zm-4.387-2.745 2.615.435-1.308-2.614z"/><path d="m41 55a1.009 1.009 0 0 1 -.164-.014l-6-1a1 1 0 0 1 -.693-1.5l3-5a.941.941 0 0 1 .895-.486 1 1 0 0 1 .857.552l3 6a1 1 0 0 1 -.895 1.448zm-4.387-2.745 2.615.435-1.308-2.614z"/><path d="m26.5 54.5a1 1 0 0 1 -.447-.1l-4-2a1 1 0 0 1 -.523-1.137l1-4a1 1 0 0 1 1.417-.653l4 2a1 1 0 0 1 .523 1.137l-1 4a1 1 0 0 1 -.552.666.986.986 0 0 1 -.418.087zm-2.835-3.536 2.167 1.084.5-2.012-2.167-1.084z"/><path d="m32 62a1 1 0 0 1 -.707-.293l-3-3a1 1 0 0 1 -.188-1.154l2-4a1 1 0 0 1 .8-.549.991.991 0 0 1 .89.4l3 4a1 1 0 1 1 -1.6 1.2l-2.029-2.7-.949 1.896 2.49 2.49a1 1 0 0 1 -.707 1.71z"/><path d="m33.5 48a1 1 0 0 1 -.631-1.776l21.824-17.712a14.049 14.049 0 0 0 3.328-18.182 1 1 0 1 1 1.72-1.019 16.032 16.032 0 0 1 -3.788 20.753l-21.823 17.712a.992.992 0 0 1 -.63.224z"/><path d="m32.5 43a1 1 0 0 1 -.768-1.641l4.416-5.3-4.354-4.355a1 1 0 0 1 .106-1.504l6.907-5.18-5.888-4.207a1 1 0 0 1 -.419-.813l-.01-3.986a.993.993 0 0 1 .014-.165 14.061 14.061 0 0 1 6.474-11.475 14.885 14.885 0 0 1 18.09 1.578 1 1 0 0 1 -1.368 1.459 12.858 12.858 0 0 0 -15.633-1.359 12.061 12.061 0 0 0 -5.567 10.121 1 1 0 0 1 -.009.135l.008 3.176 6.582 4.7a1 1 0 0 1 .019 1.616l-7.078 5.308 4.185 4.185a1 1 0 0 1 .062 1.348l-5 6a1 1 0 0 1 -.769.359z"/></g><path d="m47 46a1 1 0 0 1 -1-1v-3a1 1 0 0 1 2 0v3a1 1 0 0 1 -1 1z"/><path d="m57 36a1 1 0 0 1 -1-1v-3a1 1 0 0 1 2 0v3a1 1 0 0 1 -1 1z"/><path d="m17 45a1 1 0 0 1 -1-1v-3a1 1 0 0 1 2 0v3a1 1 0 0 1 -1 1z"/><path d="m8 40a1 1 0 0 1 -1-1v-3a1 1 0 0 1 2 0v3a1 1 0 0 1 -1 1z"/><path d="m13 40a1 1 0 0 1 -1-1v-2a1 1 0 0 1 2 0v2a1 1 0 0 1 -1 1z"/><path d="m4 37a1 1 0 0 1 -1-1v-4a1 1 0 0 1 2 0v4a1 1 0 0 1 -1 1z"/><path d="m52 41a1 1 0 0 1 -1-1v-3a1 1 0 0 1 2 0v3a1 1 0 0 1 -1 1z"/></g></g></g></svg>