<svg height="512" viewBox="0 0 512 512" width="512"
    xmlns="http://www.w3.org/2000/svg">
    <g id="Blue">
        <path d="m24 120h464a0 0 0 0 1 0 0v352a16 16 0 0 1 -16 16h-432a16 16 0 0 1 -16-16v-352a0 0 0 0 1 0 0z" fill="#ffffff"/>
        <path d="m40 56h432a16 16 0 0 1 16 16v56a0 0 0 0 1 0 0h-464a0 0 0 0 1 0 0v-56a16 16 0 0 1 16-16z" fill="#ffffff"/>
        <rect fill="#000000" height="64" rx="16" width="32" x="72" y="24"/>
        <rect fill="#000000" height="64" rx="16" width="32" x="296" y="24"/>
        <rect fill="#000000" height="64" rx="16" width="32" x="184" y="24"/>
        <rect fill="#000000" height="64" rx="16" width="32" x="408" y="24"/>
        <path d="m144 168h224v280h-224z" fill="#ffffff"/>
        <g fill="#000000">
            <path d="m248 400h96v16h-96z"/>
            <path d="m248 368h48v16h-48z"/>
            <path d="m248 320h96v16h-96z"/>
            <path d="m248 288h48v16h-48z"/>
            <path d="m248 240h96v16h-96z"/>
            <path d="m248 208h48v16h-48z"/>
            <path d="m191.259 416a8 8 0 0 1 -5.656-2.343l-16-16 11.313-11.314 9.68 9.68 26.416-33.023 12.494 10-32 40a8 8 0 0 1 -5.8 2.99c-.152.01-.3.01-.447.01z"/>
            <path d="m191.259 336a8 8 0 0 1 -5.656-2.343l-16-16 11.313-11.314 9.68 9.68 26.416-33.023 12.494 10-32 40a8 8 0 0 1 -5.8 2.99c-.152.01-.3.01-.447.01z"/>
            <path d="m191.259 256a8 8 0 0 1 -5.656-2.343l-16-16 11.313-11.314 9.68 9.68 26.416-33.023 12.494 10-32 40a8 8 0 0 1 -5.8 2.99c-.152.01-.3.01-.447.01z"/>
            <path d="m144 456h224a8 8 0 0 0 8-8v-280a8 8 0 0 0 -8-8h-224a8 8 0 0 0 -8 8v280a8 8 0 0 0 8 8zm8-280h208v264h-208z"/>
            <path d="m472 48h-24v-8a24 24 0 0 0 -48 0v8h-64v-8a24 24 0 0 0 -48 0v8h-64v-8a24 24 0 0 0 -48 0v8h-64v-8a24 24 0 0 0 -48 0v8h-24a24.028 24.028 0 0 0 -24 24v400a24.028 24.028 0 0 0 24 24h432a24.028 24.028 0 0 0 24-24v-400a24.028 24.028 0 0 0 -24-24zm-56-8a8 8 0 0 1 16 0v32a8 8 0 0 1 -16 0zm-112 0a8 8 0 0 1 16 0v32a8 8 0 0 1 -16 0zm-112 0a8 8 0 0 1 16 0v32a8 8 0 0 1 -16 0zm-112 0a8 8 0 0 1 16 0v32a8 8 0 0 1 -16 0zm400 432a8.009 8.009 0 0 1 -8 8h-432a8.009 8.009 0 0 1 -8-8v-336h448zm0-352h-448v-48a8.009 8.009 0 0 1 8-8h24v8a24 24 0 0 0 48 0v-8h64v8a24 24 0 0 0 48 0v-8h64v8a24 24 0 0 0 48 0v-8h64v8a24 24 0 0 0 48 0v-8h24a8.009 8.009 0 0 1 8 8z"/>
        </g>
    </g>
</svg>